<?xml version="1.0" encoding="UTF-8" ?>
<!DOCTYPE svg PUBLIC "-//W3C//DTD SVG 1.1//EN" "http://www.w3.org/Graphics/SVG/1.1/DTD/svg11.dtd">
<svg width="210pt" height="300pt" viewBox="0 0 210 300" version="1.1" xmlns="http://www.w3.org/2000/svg">
<g id="#131313e2">
<path fill="#131313" opacity="0.89" d=" M 97.93 12.93 C 99.15 11.43 100.47 10.00 101.82 8.61 C 105.30 11.01 108.96 13.15 112.16 15.92 C 108.76 14.36 105.41 12.69 102.11 10.90 C 100.71 11.56 99.30 12.21 97.93 12.93 Z" />
</g>
<g id="#323232ff">
<path fill="#323232" opacity="1.00" d=" M 97.93 12.93 C 99.30 12.21 100.71 11.56 102.11 10.90 C 105.41 12.69 108.76 14.36 112.16 15.92 C 122.62 21.87 132.26 29.15 142.42 35.58 C 144.80 37.10 147.42 38.39 149.21 40.64 C 143.37 45.99 138.14 52.00 132.11 57.13 C 129.62 58.95 127.34 61.05 125.35 63.41 C 120.87 68.67 116.08 73.67 110.85 78.18 C 100.53 73.41 91.45 66.43 81.63 60.78 C 81.95 59.67 82.27 58.56 82.60 57.45 C 87.65 54.58 92.46 51.31 97.62 48.64 C 101.29 47.24 105.30 46.04 108.02 43.04 C 108.81 42.32 108.94 41.47 108.42 40.50 C 106.82 40.40 105.53 41.45 104.24 42.21 C 97.47 46.49 90.24 49.96 83.41 54.14 C 80.08 55.01 76.83 56.21 73.83 57.91 C 69.95 55.48 64.04 53.58 64.12 48.07 C 64.05 47.57 63.90 46.56 63.83 46.06 C 65.22 45.47 66.61 44.87 67.99 44.25 C 68.29 43.68 68.59 43.12 68.89 42.55 C 69.21 41.98 69.54 41.41 69.88 40.85 C 71.38 38.13 73.45 35.80 75.94 33.95 C 76.72 33.32 77.48 32.68 78.24 32.02 C 78.94 31.35 79.57 30.63 80.13 29.84 C 80.51 29.35 81.25 28.37 81.62 27.89 C 82.65 27.51 83.80 27.33 84.64 26.58 C 89.43 22.39 93.02 16.98 97.93 12.93 Z" />
</g>
<g id="#3b6656ff">
<path fill="#3b6656" opacity="1.00" d=" M 43.15 22.88 C 45.43 23.07 47.72 23.27 50.01 23.11 C 48.37 24.07 46.99 25.37 45.65 26.70 C 48.74 29.85 52.41 32.32 56.50 33.98 C 57.68 34.73 58.83 35.53 59.97 36.34 C 58.21 37.81 60.58 39.34 62.11 38.92 C 64.39 40.11 66.64 41.33 68.89 42.55 C 68.59 43.12 68.29 43.68 67.99 44.25 C 66.61 44.87 65.22 45.47 63.83 46.06 C 62.28 44.66 60.69 43.30 59.05 42.00 C 60.02 43.63 61.14 45.18 62.50 46.52 C 61.05 49.67 58.35 52.35 57.82 55.84 C 60.42 58.80 65.30 58.29 67.66 61.53 C 68.03 65.25 66.92 69.02 67.33 72.78 C 66.54 73.23 65.76 73.68 64.98 74.13 C 62.45 71.33 59.18 69.39 55.68 68.05 C 57.46 70.05 59.26 72.02 61.17 73.90 C 54.78 70.93 48.98 66.83 43.40 62.57 C 40.60 60.82 41.91 56.96 40.17 54.47 C 41.65 54.55 43.14 54.57 44.60 54.85 C 50.57 58.29 55.07 63.79 61.03 67.31 C 59.47 62.38 54.49 60.27 51.05 56.89 C 47.78 53.71 43.83 51.41 40.12 48.81 C 39.68 48.30 38.81 47.27 38.38 46.75 C 39.50 46.25 40.62 45.77 41.75 45.29 C 40.15 44.19 38.57 43.05 37.00 41.91 C 37.90 41.15 38.84 40.42 39.78 39.70 C 38.13 39.15 36.67 38.20 35.55 36.85 C 37.04 36.66 38.55 36.66 40.06 36.73 C 38.90 34.70 37.61 32.66 37.47 30.26 C 40.28 29.31 42.88 27.88 45.16 25.99 C 44.50 24.95 43.82 23.91 43.15 22.88 M 52.30 39.12 C 51.64 40.38 53.59 42.07 54.79 41.46 C 55.42 40.18 53.53 38.45 52.30 39.12 M 57.52 46.19 C 56.77 47.30 58.57 48.91 59.54 47.90 C 60.27 46.79 58.47 45.24 57.52 46.19 Z" />
<path fill="#3b6656" opacity="1.00" d=" M 133.08 79.82 C 134.01 79.42 134.93 79.02 135.87 78.62 C 136.92 79.89 137.97 81.16 139.04 82.42 C 139.97 83.49 140.91 84.57 141.84 85.65 C 142.56 85.20 143.28 84.76 144.00 84.31 C 145.13 86.61 145.91 89.25 147.87 91.01 C 151.21 93.44 155.76 94.12 158.34 97.59 C 161.29 101.41 163.97 105.56 168.10 108.25 C 168.06 107.47 167.98 105.92 167.94 105.14 C 171.63 109.99 174.04 115.65 177.49 120.67 C 180.15 122.46 183.65 122.67 186.20 124.54 C 187.24 125.89 188.29 127.25 189.39 128.56 C 189.58 127.98 189.95 126.84 190.14 126.27 C 192.51 127.34 194.46 129.09 196.05 131.13 C 193.88 130.41 191.77 129.53 189.59 128.85 C 189.49 131.19 190.71 133.10 191.85 135.03 C 191.66 136.48 191.15 137.86 190.60 139.20 C 193.38 141.74 196.22 144.35 197.54 147.98 C 196.89 148.12 195.59 148.39 194.95 148.52 C 196.71 150.63 198.59 152.64 200.26 154.83 C 198.53 155.38 196.75 155.75 194.94 155.72 C 195.75 156.56 196.56 157.42 197.37 158.28 C 196.54 158.75 195.69 159.20 194.85 159.65 C 195.74 161.71 196.50 163.83 197.25 165.96 C 195.08 164.84 192.95 163.63 190.84 162.40 C 190.17 163.49 189.53 164.59 188.88 165.70 C 187.23 163.45 184.65 162.32 182.33 160.92 C 183.06 162.25 183.79 163.58 184.50 164.92 C 183.66 165.04 181.98 165.27 181.14 165.39 C 183.03 167.04 185.02 168.60 186.91 170.27 C 186.79 172.42 184.02 172.56 182.55 173.57 C 183.16 174.31 183.76 175.05 184.36 175.80 C 183.87 176.20 182.89 177.00 182.40 177.39 C 183.04 179.38 183.63 181.38 184.20 183.39 C 181.87 182.49 179.52 181.50 176.99 181.49 C 176.85 182.36 176.58 184.11 176.44 184.98 C 169.37 182.59 162.63 176.64 154.76 179.45 C 155.75 180.71 157.17 181.47 158.55 182.25 C 158.07 183.74 158.07 185.63 156.61 186.58 C 151.79 186.10 146.95 185.31 142.10 186.09 C 141.96 186.90 141.67 188.51 141.52 189.32 C 140.39 188.19 139.31 187.01 138.20 185.87 C 139.28 188.73 140.73 191.56 143.96 192.28 C 148.63 201.45 151.05 211.61 155.60 220.86 C 155.12 221.52 154.64 222.18 154.17 222.85 C 152.37 221.86 150.58 220.88 148.77 219.94 C 151.19 224.64 155.21 228.14 159.49 231.12 C 161.75 234.70 162.81 239.14 163.01 243.36 C 160.40 240.07 159.77 235.65 156.74 232.61 C 157.07 234.84 156.99 237.14 154.96 238.52 C 154.44 238.38 153.40 238.11 152.88 237.97 C 150.42 237.23 151.05 240.81 152.51 241.60 L 152.82 241.97 C 154.13 244.18 154.67 246.74 155.02 249.26 C 153.17 248.05 152.00 246.17 150.99 244.26 C 153.18 252.09 155.47 260.12 155.25 268.32 C 154.04 267.07 152.88 265.77 151.65 264.53 C 151.75 269.72 154.31 274.21 156.19 278.89 C 154.21 278.59 152.23 278.27 150.25 277.95 C 149.52 276.62 148.77 275.30 147.99 274.01 C 148.29 276.51 148.94 278.94 149.75 281.32 C 147.90 281.91 146.33 281.03 144.93 279.89 C 145.60 281.90 147.37 284.34 145.14 286.04 C 145.52 287.79 145.86 289.56 146.08 291.35 C 143.84 289.39 142.53 286.67 141.08 284.13 C 143.43 283.32 141.28 279.76 139.74 282.01 C 138.94 281.10 138.16 280.18 137.39 279.26 C 136.16 280.27 134.94 281.27 133.69 282.25 C 133.54 280.85 133.54 279.45 133.62 278.05 C 132.40 276.39 130.77 274.92 130.19 272.88 C 127.86 265.55 125.77 258.15 123.03 250.96 C 122.16 248.24 119.23 246.58 118.68 243.83 C 122.56 234.59 126.08 225.20 130.19 216.07 C 132.76 211.04 130.79 205.39 131.22 200.06 C 135.36 201.80 138.94 204.62 143.13 206.27 C 139.90 202.33 135.99 198.90 131.40 196.63 C 131.54 190.62 132.75 184.29 130.19 178.60 C 130.16 177.51 130.17 176.42 130.20 175.33 C 130.72 175.22 131.77 174.99 132.30 174.87 C 132.09 171.40 132.21 167.92 132.35 164.45 C 137.39 168.86 141.70 174.04 146.89 178.27 C 142.32 172.88 136.65 168.53 132.24 163.00 C 132.31 158.01 130.85 152.29 134.00 147.94 C 136.47 144.33 138.86 140.66 140.79 136.73 C 142.40 138.31 144.08 139.82 145.88 141.19 C 144.38 139.39 142.72 137.75 141.08 136.09 C 142.50 132.84 144.51 129.65 144.59 126.01 C 144.65 120.24 142.47 114.50 143.72 108.75 C 144.83 104.88 147.76 101.94 150.08 98.76 C 147.59 95.27 143.49 92.90 139.17 92.84 C 136.58 94.27 135.37 97.26 133.66 99.57 C 133.25 98.87 132.85 98.17 132.44 97.48 C 131.86 98.09 131.27 98.70 130.67 99.30 C 130.89 98.32 131.11 97.34 131.32 96.35 C 133.21 91.04 132.96 85.36 133.08 79.82 M 149.39 95.12 C 148.94 96.51 149.42 97.00 150.82 96.58 C 151.27 95.18 150.79 94.69 149.39 95.12 M 152.01 95.62 C 151.79 97.89 151.63 100.18 151.56 102.47 C 154.26 101.04 154.90 97.27 152.01 95.62 M 155.09 96.64 C 155.03 98.12 154.98 99.60 154.95 101.08 C 155.54 101.07 156.74 101.05 157.34 101.03 C 156.97 99.35 157.41 96.89 155.09 96.64 M 150.14 111.01 C 152.22 112.96 154.60 114.61 156.29 116.94 C 157.30 115.91 158.81 116.38 160.10 116.30 C 156.42 115.25 153.03 113.53 150.14 111.01 M 148.78 116.71 C 151.07 122.23 156.49 125.45 161.07 128.88 C 158.47 123.59 153.69 119.72 148.78 116.71 M 147.97 121.99 C 151.52 125.05 155.43 127.66 158.88 130.85 C 155.72 127.37 152.12 124.24 147.97 121.99 M 152.52 131.07 C 151.55 132.37 153.79 133.90 154.77 132.72 C 155.74 131.41 153.49 129.86 152.52 131.07 M 182.43 133.12 C 181.93 134.57 184.13 136.25 185.46 135.64 C 185.95 134.19 183.78 132.39 182.43 133.12 M 187.16 134.07 C 187.33 137.40 190.13 132.49 187.16 134.07 M 187.66 144.10 C 189.23 146.34 191.35 148.23 194.23 148.35 C 192.37 146.46 190.10 145.08 187.66 144.10 M 141.33 147.10 C 140.97 148.50 141.49 148.97 142.87 148.52 C 143.23 147.11 142.72 146.63 141.33 147.10 M 157.44 147.28 C 156.58 148.41 158.50 149.89 159.43 148.87 C 160.29 147.74 158.37 146.26 157.44 147.28 M 187.38 147.37 C 186.33 148.59 188.20 150.84 189.55 149.83 C 190.55 148.62 188.71 146.35 187.38 147.37 M 174.31 151.26 C 173.21 152.70 175.50 154.69 176.88 153.67 C 178.16 152.30 175.60 150.21 174.31 151.26 M 136.76 152.71 C 138.11 155.08 140.00 157.45 143.04 157.22 C 141.48 155.06 139.20 153.67 136.76 152.71 M 187.30 159.24 C 186.85 160.96 190.38 163.24 191.38 161.57 C 190.53 160.36 188.85 158.90 187.30 159.24 M 167.63 161.96 C 168.62 165.16 170.80 167.89 174.00 169.06 C 172.66 166.09 170.53 163.53 167.63 161.96 M 175.10 169.31 C 174.66 170.71 175.14 171.21 176.55 170.78 C 176.98 169.38 176.50 168.89 175.10 169.31 M 163.63 172.26 C 162.50 174.26 166.53 174.80 166.64 172.78 C 166.51 171.35 164.37 171.30 163.63 172.26 M 131.74 177.92 C 132.72 180.60 134.39 182.98 137.22 183.88 C 135.92 181.46 133.89 179.58 131.74 177.92 M 173.24 178.57 C 172.52 179.79 174.34 181.66 175.57 180.88 C 176.28 179.67 174.45 177.82 173.24 178.57 M 150.20 181.47 C 149.47 182.72 151.30 184.44 152.53 183.76 C 153.30 182.55 151.40 180.73 150.20 181.47 M 132.65 189.91 C 134.65 192.92 137.76 194.88 141.11 196.09 C 139.41 192.77 136.16 190.83 132.65 189.91 M 138.01 209.23 C 139.12 210.29 140.24 211.34 141.35 212.40 C 141.77 212.16 142.20 211.91 142.62 211.67 C 141.07 210.88 139.55 210.05 138.01 209.23 M 142.28 221.57 C 141.82 223.14 143.91 225.38 145.51 224.72 C 145.96 223.15 143.77 221.27 142.28 221.57 M 135.40 228.25 C 134.61 229.40 136.24 231.45 137.51 230.70 C 138.29 229.55 136.67 227.49 135.40 228.25 M 132.75 237.80 C 131.54 241.10 134.07 243.98 136.75 245.54 C 136.29 244.36 135.81 243.19 135.32 242.03 C 135.81 240.64 136.29 239.25 136.79 237.87 C 135.44 237.84 134.10 237.82 132.75 237.80 M 141.24 247.15 C 141.77 247.68 141.77 247.68 141.24 247.15 M 129.18 248.11 C 130.66 250.40 132.65 252.28 134.63 254.13 C 132.88 252.07 131.16 249.96 129.18 248.11 M 127.24 257.18 C 126.85 258.58 127.35 259.07 128.74 258.66 C 129.14 257.26 128.64 256.76 127.24 257.18 M 129.73 260.01 C 131.02 262.09 132.85 263.77 134.84 265.18 C 133.42 263.19 131.70 261.44 129.73 260.01 M 141.36 272.19 C 140.87 273.06 140.38 273.95 139.90 274.83 C 138.87 274.74 137.84 274.67 136.82 274.61 C 138.73 275.29 140.74 275.51 142.72 275.90 C 144.50 276.67 145.91 278.07 147.52 279.13 C 146.35 276.12 143.87 274.06 141.36 272.19 Z" />
<path fill="#3b6656" opacity="1.00" d=" M 64.30 105.37 C 66.90 104.58 69.48 103.75 72.05 102.88 C 72.31 103.31 72.83 104.17 73.08 104.60 C 68.77 105.85 64.42 107.01 60.16 108.38 C 59.78 108.25 59.00 107.97 58.62 107.83 C 60.33 106.63 62.31 105.95 64.30 105.37 Z" />
</g>
<g id="#3f6f62ff">
<path fill="#3f6f62" opacity="1.00" d=" M 50.01 23.11 C 51.06 22.89 52.05 23.19 52.95 24.00 C 55.86 26.47 58.38 29.34 61.10 32.00 C 60.82 32.05 60.26 32.15 59.98 32.20 C 58.79 32.74 57.64 33.36 56.50 33.98 C 52.41 32.32 48.74 29.85 45.65 26.70 C 46.99 25.37 48.37 24.07 50.01 23.11 Z" />
</g>
<g id="#437065ff">
<path fill="#437065" opacity="1.00" d=" M 68.90 24.16 C 69.89 23.81 70.83 23.28 71.89 23.20 C 75.36 24.23 78.76 25.62 81.62 27.89 C 81.25 28.37 80.51 29.35 80.13 29.84 C 79.51 29.78 78.26 29.67 77.63 29.61 C 77.50 28.81 77.38 28.00 77.25 27.19 C 74.03 27.91 71.58 25.49 68.90 24.16 Z" />
<path fill="#437065" opacity="1.00" d=" M 66.68 34.98 C 64.41 32.31 61.79 29.88 60.26 26.67 C 60.87 26.74 62.07 26.90 62.68 26.97 C 65.06 27.44 67.36 28.24 69.62 29.11 C 71.77 30.67 73.86 32.30 75.94 33.95 C 73.45 35.80 71.38 38.13 69.88 40.85 C 68.28 39.66 66.71 38.45 65.24 37.10 C 65.39 36.89 65.67 36.48 65.82 36.27 C 66.03 35.95 66.46 35.30 66.68 34.98 Z" />
<path fill="#437065" opacity="1.00" d=" M 132.95 60.95 C 135.27 63.07 137.23 65.54 138.97 68.15 C 136.95 67.45 135.24 66.14 133.58 64.84 C 133.41 63.53 133.19 62.24 132.95 60.95 Z" />
</g>
<g id="#305c47fa">
<path fill="#305c47" opacity="0.98" d=" M 52.95 24.00 C 55.43 24.44 59.01 23.91 60.26 26.67 C 61.79 29.88 64.41 32.31 66.68 34.98 C 66.46 35.30 66.03 35.95 65.82 36.27 C 64.22 34.87 62.66 33.44 61.10 32.00 C 58.38 29.34 55.86 26.47 52.95 24.00 Z" />
</g>
<g id="#355448ca">
<path fill="#355448" opacity="0.79" d=" M 63.81 23.70 C 69.10 25.51 73.74 28.79 78.24 32.02 C 77.48 32.68 76.72 33.32 75.94 33.95 C 73.86 32.30 71.77 30.67 69.62 29.11 C 68.19 27.97 66.81 26.78 65.48 25.54 C 65.06 25.08 64.23 24.16 63.81 23.70 Z" />
</g>
<g id="#11251b54">
<path fill="#11251b" opacity="0.33" d=" M 62.68 26.97 C 63.38 26.62 64.78 25.90 65.48 25.54 C 66.81 26.78 68.19 27.97 69.62 29.11 C 67.36 28.24 65.06 27.44 62.68 26.97 Z" />
</g>
<g id="#285242ff">
<path fill="#285242" opacity="1.00" d=" M 56.50 33.98 C 57.64 33.36 58.79 32.74 59.98 32.20 C 61.76 33.80 63.50 35.45 65.24 37.10 C 66.71 38.45 68.28 39.66 69.88 40.85 C 69.54 41.41 69.21 41.98 68.89 42.55 C 66.64 41.33 64.39 40.11 62.11 38.92 C 61.63 37.86 60.91 37.00 59.97 36.34 C 58.83 35.53 57.68 34.73 56.50 33.98 Z" />
</g>
<g id="#ffffffff">
<path fill="#ffffff" opacity="1.00" d=" M 59.98 32.20 C 60.26 32.15 60.82 32.05 61.10 32.00 C 62.66 33.44 64.22 34.87 65.82 36.27 C 65.67 36.48 65.39 36.89 65.24 37.10 C 63.50 35.45 61.76 33.80 59.98 32.20 Z" />
<path fill="#ffffff" opacity="1.00" d=" M 62.11 38.92 C 60.58 39.34 58.21 37.81 59.97 36.34 C 60.91 37.00 61.63 37.86 62.11 38.92 Z" />
<path fill="#ffffff" opacity="1.00" d=" M 52.30 39.12 C 53.53 38.45 55.42 40.18 54.79 41.46 C 53.59 42.07 51.64 40.38 52.30 39.12 Z" />
<path fill="#ffffff" opacity="1.00" d=" M 59.05 42.00 C 60.69 43.30 62.28 44.66 63.83 46.06 C 63.90 46.56 64.05 47.57 64.12 48.07 C 63.58 47.56 63.03 47.04 62.50 46.52 C 61.14 45.18 60.02 43.63 59.05 42.00 Z" />
<path fill="#ffffff" opacity="1.00" d=" M 57.52 46.19 C 58.47 45.24 60.27 46.79 59.54 47.90 C 58.57 48.91 56.77 47.30 57.52 46.19 Z" />
<path fill="#ffffff" opacity="1.00" d=" M 71.73 64.92 C 72.31 65.37 72.89 65.81 73.48 66.26 C 73.12 69.06 72.38 71.81 72.38 74.65 C 72.33 76.13 72.27 77.60 72.21 79.08 C 70.78 74.37 73.71 69.53 71.73 64.92 Z" />
<path fill="#ffffff" opacity="1.00" d=" M 114.63 88.04 C 117.45 80.32 123.80 74.28 131.40 71.25 C 131.34 79.62 131.40 87.98 131.32 96.35 C 131.11 97.34 130.89 98.32 130.67 99.30 C 129.27 99.52 127.88 99.73 126.49 99.94 C 125.83 103.19 128.38 105.05 130.81 106.52 C 131.30 114.59 130.60 122.69 131.23 130.75 C 125.94 132.20 120.49 133.01 115.27 134.72 C 115.28 126.81 115.15 118.89 115.27 110.98 C 115.29 108.08 117.41 105.74 117.72 102.90 C 117.92 99.23 114.16 96.71 114.44 93.04 C 114.41 91.37 114.40 89.69 114.63 88.04 M 124.94 94.20 C 124.92 95.53 124.91 96.86 124.91 98.20 C 125.67 98.26 127.20 98.38 127.96 98.44 C 128.06 96.81 128.18 95.17 128.31 93.54 C 127.47 93.71 125.78 94.04 124.94 94.20 Z" />
<path fill="#ffffff" opacity="1.00" d=" M 83.36 78.54 C 94.06 75.25 105.29 80.98 112.84 88.37 C 112.79 90.24 112.72 92.11 112.65 93.98 C 107.40 92.55 101.61 92.82 97.23 96.36 C 93.79 92.02 88.11 93.24 83.40 94.06 C 83.33 88.88 83.17 83.71 83.36 78.54 M 85.64 90.18 C 88.34 90.67 91.39 89.74 92.39 86.97 C 90.15 87.99 86.99 87.87 85.64 90.18 M 105.46 87.17 C 105.28 89.94 107.77 91.28 110.04 91.91 C 109.40 89.65 107.40 88.27 105.46 87.17 Z" />
<path fill="#ffffff" opacity="1.00" d=" M 80.36 101.20 C 81.52 95.22 89.95 93.50 94.49 96.50 C 97.04 97.70 95.41 100.56 95.30 102.64 C 93.95 102.80 92.07 102.04 91.12 103.31 C 89.92 104.60 91.50 106.03 92.00 107.22 C 93.46 106.87 94.92 106.49 96.39 106.18 C 95.53 108.67 92.56 109.22 90.58 110.59 C 85.04 112.99 78.57 106.88 80.36 101.20 Z" />
<path fill="#ffffff" opacity="1.00" d=" M 98.35 98.36 C 102.65 92.99 112.96 93.84 115.51 100.58 C 116.70 104.04 113.85 107.25 111.51 109.47 C 109.83 111.25 106.64 110.69 105.56 113.10 C 108.53 113.65 111.21 112.38 113.69 110.92 C 113.20 119.12 114.37 127.36 113.44 135.54 C 108.81 140.87 103.73 146.00 101.13 152.75 C 97.05 146.71 90.79 142.79 84.76 138.97 C 84.07 129.99 84.13 120.98 84.01 111.98 C 85.89 112.40 87.77 112.78 89.66 113.09 C 89.24 118.46 94.97 120.63 99.45 120.00 C 97.81 117.38 93.57 118.54 92.12 115.66 C 90.56 112.74 94.15 109.58 97.01 110.13 C 100.21 109.94 102.16 112.81 104.81 114.04 C 104.76 110.30 100.97 109.25 98.31 107.72 C 96.74 104.95 96.73 101.12 98.35 98.36 M 99.86 103.18 C 98.75 104.77 101.16 105.80 101.97 106.81 C 103.04 105.87 105.31 105.17 104.57 103.33 C 103.77 101.44 100.98 101.74 99.86 103.18 M 104.64 122.72 C 99.32 124.25 93.73 123.78 88.27 123.73 C 88.07 122.98 87.68 121.47 87.48 120.72 C 85.15 121.88 85.39 124.73 85.42 126.92 C 86.05 126.80 87.30 126.57 87.93 126.45 C 89.86 129.04 92.05 131.42 94.08 133.94 C 96.71 137.39 103.09 136.75 104.75 132.65 C 105.90 130.06 106.57 127.30 107.39 124.59 C 107.89 125.22 108.40 125.84 108.93 126.46 C 109.94 124.13 110.02 121.60 108.99 119.26 C 107.63 120.50 106.55 122.28 104.64 122.72 Z" />
<path fill="#ffffff" opacity="1.00" d=" M 139.23 95.06 C 142.43 94.83 145.34 96.66 147.69 98.65 C 144.94 102.02 141.99 105.62 141.30 110.05 C 141.00 116.03 142.84 121.99 142.34 127.95 C 139.24 133.97 136.80 140.37 133.03 146.02 C 132.22 147.54 130.57 147.92 129.00 148.11 C 131.34 140.65 137.19 135.00 140.08 127.80 C 139.19 120.61 136.56 113.42 137.95 106.12 C 134.33 105.72 129.76 105.13 128.14 101.32 C 130.50 101.36 132.52 102.58 134.49 103.76 C 136.08 100.90 136.54 97.13 139.23 95.06 Z" />
<path fill="#ffffff" opacity="1.00" d=" M 69.92 106.89 L 70.69 106.48 C 71.00 106.82 71.61 107.52 71.92 107.87 C 72.02 110.32 69.00 108.50 69.92 106.89 Z" />
<path fill="#ffffff" opacity="1.00" d=" M 64.77 109.10 C 66.12 109.96 67.49 110.77 68.85 111.61 C 68.53 112.23 68.21 112.85 67.90 113.48 C 66.53 112.37 65.14 111.28 63.73 110.22 C 63.99 109.94 64.51 109.38 64.77 109.10 Z" />
<path fill="#ffffff" opacity="1.00" d=" M 57.77 110.85 C 60.34 112.37 62.68 114.34 64.38 116.82 C 61.86 115.27 58.86 113.81 57.77 110.85 Z" />
<path fill="#ffffff" opacity="1.00" d=" M 150.14 111.01 C 153.03 113.53 156.42 115.25 160.10 116.30 C 158.81 116.38 157.30 115.91 156.29 116.94 C 154.60 114.61 152.22 112.96 150.14 111.01 Z" />
<path fill="#ffffff" opacity="1.00" d=" M 64.87 117.12 C 67.51 118.80 69.93 120.81 72.53 122.56 C 73.87 123.77 75.04 125.16 76.24 126.52 C 71.66 124.53 68.10 120.82 64.87 117.12 Z" />
<path fill="#ffffff" opacity="1.00" d=" M 49.23 120.97 C 52.54 123.37 55.53 126.16 58.60 128.86 C 58.13 129.69 57.65 130.51 57.15 131.33 C 57.36 132.13 57.57 132.93 57.79 133.74 C 56.74 132.61 55.64 131.55 54.42 130.62 C 55.05 130.45 56.30 130.11 56.93 129.95 C 57.00 129.58 57.16 128.84 57.24 128.47 C 54.57 125.97 51.75 123.63 49.23 120.97 Z" />
<path fill="#ffffff" opacity="1.00" d=" M 36.88 122.22 C 43.02 124.39 48.59 128.08 52.80 133.07 C 49.78 130.71 47.29 127.55 43.60 126.17 C 41.18 125.20 38.92 123.85 36.88 122.22 Z" />
<path fill="#ffffff" opacity="1.00" d=" M 147.97 121.99 C 152.12 124.24 155.72 127.37 158.88 130.85 C 155.43 127.66 151.52 125.05 147.97 121.99 Z" />
<path fill="#ffffff" opacity="1.00" d=" M 89.36 125.62 C 94.75 125.78 100.17 125.69 105.50 124.76 C 105.08 126.16 104.64 127.55 104.22 128.95 C 102.81 128.50 101.43 127.93 99.96 127.74 C 97.49 127.82 95.84 129.87 94.16 131.41 C 92.53 129.51 90.83 127.66 89.36 125.62 Z" />
<path fill="#ffffff" opacity="1.00" d=" M 189.39 128.56 C 188.29 127.25 187.24 125.89 186.20 124.54 C 187.54 125.05 188.85 125.63 190.14 126.27 C 189.95 126.84 189.58 127.98 189.39 128.56 Z" />
<path fill="#ffffff" opacity="1.00" d=" M 59.62 129.30 C 64.48 132.88 67.70 138.62 73.45 140.95 C 74.20 142.12 74.96 143.29 75.72 144.47 C 72.94 142.67 70.33 140.62 68.13 138.14 C 65.34 135.15 62.12 132.56 59.62 129.30 Z" />
<path fill="#ffffff" opacity="1.00" d=" M 95.14 133.19 C 96.57 131.42 98.26 128.86 100.93 129.48 C 101.67 129.84 103.14 130.57 103.87 130.93 C 102.20 134.11 98.13 135.35 95.14 133.19 Z" />
<path fill="#ffffff" opacity="1.00" d=" M 141.08 136.09 C 142.72 137.75 144.38 139.39 145.88 141.19 C 144.08 139.82 142.40 138.31 140.79 136.73 L 141.08 136.09 Z" />
<path fill="#ffffff" opacity="1.00" d=" M 115.36 141.46 C 120.58 139.71 126.01 138.74 131.44 137.86 C 130.03 141.00 128.32 143.99 126.73 147.03 C 127.90 148.39 129.12 149.70 130.35 151.02 C 130.16 159.12 130.50 167.23 130.20 175.33 C 130.17 176.42 130.16 177.51 130.19 178.60 C 130.10 189.08 130.24 199.56 130.02 210.04 C 130.08 212.75 128.72 215.16 127.61 217.55 C 124.03 224.70 121.75 232.42 118.14 239.56 C 115.95 206.91 116.19 174.15 115.36 141.46 Z" />
<path fill="#ffffff" opacity="1.00" d=" M 82.84 138.90 C 83.12 141.76 83.76 144.66 83.39 147.52 C 82.25 151.05 80.38 154.29 79.08 157.76 C 81.82 161.18 84.90 164.40 87.10 168.21 C 87.65 171.59 86.55 176.19 82.95 177.39 C 79.78 177.61 78.16 174.63 76.63 172.39 C 77.77 173.03 78.88 173.70 80.00 174.37 C 79.94 171.65 80.78 169.12 82.23 166.85 C 79.57 163.96 76.64 161.20 75.03 157.55 C 77.63 151.33 80.34 145.16 82.84 138.90 Z" />
<path fill="#ffffff" opacity="1.00" d=" M 103.14 155.56 C 106.26 151.01 109.42 146.41 113.70 142.86 C 114.45 168.57 114.91 194.30 116.23 219.99 C 116.28 227.45 116.45 234.90 116.70 242.36 C 114.66 240.72 112.65 239.05 110.66 237.36 C 108.69 235.22 106.48 233.33 104.21 231.53 C 103.23 230.64 102.25 229.76 101.26 228.88 C 98.84 226.22 96.16 223.83 93.27 221.69 C 93.02 221.48 92.52 221.05 92.27 220.83 C 90.31 218.75 88.16 216.85 86.45 214.56 C 85.68 203.71 85.88 192.80 85.52 181.93 C 85.11 177.82 88.82 174.89 89.11 170.90 C 89.95 166.97 85.60 164.60 85.47 160.90 C 85.23 155.87 84.89 150.79 85.62 145.80 C 90.60 147.84 95.27 150.87 98.18 155.51 C 95.11 156.88 91.79 158.83 91.30 162.51 C 89.76 167.25 92.62 171.70 96.03 174.73 C 91.65 179.69 90.02 187.70 93.99 193.35 C 94.57 191.67 95.15 189.96 95.37 188.19 L 95.40 187.31 C 96.00 185.15 98.07 184.18 99.38 182.59 C 99.84 180.29 100.05 177.95 100.67 175.69 C 100.96 179.29 100.53 182.88 100.43 186.48 C 101.63 185.64 102.79 184.77 103.96 183.89 C 104.89 186.42 105.81 188.96 107.04 191.36 C 109.73 185.63 106.71 179.59 104.36 174.34 C 107.75 171.66 110.99 167.74 110.09 163.10 C 109.79 159.22 106.19 157.19 103.14 155.56 Z" />
<path fill="#ffffff" opacity="1.00" d=" M 174.31 151.26 C 175.60 150.21 178.16 152.30 176.88 153.67 C 175.50 154.69 173.21 152.70 174.31 151.26 Z" />
<path fill="#ffffff" opacity="1.00" d=" M 132.24 163.00 C 136.65 168.53 142.32 172.88 146.89 178.27 C 141.70 174.04 137.39 168.86 132.35 164.45 C 132.32 164.09 132.27 163.36 132.24 163.00 Z" />
<path fill="#ffffff" opacity="1.00" d=" M 131.74 177.92 C 133.89 179.58 135.92 181.46 137.22 183.88 C 134.39 182.98 132.72 180.60 131.74 177.92 Z" />
<path fill="#ffffff" opacity="1.00" d=" M 150.20 181.47 C 151.40 180.73 153.30 182.55 152.53 183.76 C 151.30 184.44 149.47 182.72 150.20 181.47 Z" />
<path fill="#ffffff" opacity="1.00" d=" M 138.01 209.23 C 139.55 210.05 141.07 210.88 142.62 211.67 C 142.20 211.91 141.77 212.16 141.35 212.40 C 140.24 211.34 139.12 210.29 138.01 209.23 Z" />
<path fill="#ffffff" opacity="1.00" d=" M 129.18 248.11 C 131.16 249.96 132.88 252.07 134.63 254.13 C 132.65 252.28 130.66 250.40 129.18 248.11 Z" />
<path fill="#ffffff" opacity="1.00" d=" M 129.73 260.01 C 131.70 261.44 133.42 263.19 134.84 265.18 C 132.85 263.77 131.02 262.09 129.73 260.01 Z" />
</g>
<g id="#000000ff">
<path fill="#000000" opacity="1.00" d=" M 104.24 42.21 C 105.53 41.45 106.82 40.40 108.42 40.50 C 108.94 41.47 108.81 42.32 108.02 43.04 C 105.30 46.04 101.29 47.24 97.62 48.64 C 101.03 46.57 104.55 44.60 107.51 41.89 C 106.69 41.97 105.06 42.13 104.24 42.21 Z" />
<path fill="#000000" opacity="1.00" d=" M 85.64 90.18 C 86.99 87.87 90.15 87.99 92.39 86.97 C 91.39 89.74 88.34 90.67 85.64 90.18 Z" />
<path fill="#000000" opacity="1.00" d=" M 105.46 87.17 C 107.40 88.27 109.40 89.65 110.04 91.91 C 107.77 91.28 105.28 89.94 105.46 87.17 Z" />
<path fill="#000000" opacity="1.00" d=" M 99.86 103.18 C 100.98 101.74 103.77 101.44 104.57 103.33 C 105.31 105.17 103.04 105.87 101.97 106.81 C 101.16 105.80 98.75 104.77 99.86 103.18 Z" />
<path fill="#000000" opacity="1.00" d=" M 104.64 122.72 C 106.55 122.28 107.63 120.50 108.99 119.26 C 110.02 121.60 109.94 124.13 108.93 126.46 C 108.40 125.84 107.89 125.22 107.39 124.59 C 106.57 127.30 105.90 130.06 104.75 132.65 C 103.09 136.75 96.71 137.39 94.08 133.94 C 92.05 131.42 89.86 129.04 87.93 126.45 C 87.30 126.57 86.05 126.80 85.42 126.92 C 85.39 124.73 85.15 121.88 87.48 120.72 C 87.68 121.47 88.07 122.98 88.27 123.73 C 93.73 123.78 99.32 124.25 104.64 122.72 M 89.36 125.62 C 90.83 127.66 92.53 129.51 94.16 131.41 C 95.84 129.87 97.49 127.82 99.96 127.74 C 101.43 127.93 102.81 128.50 104.22 128.95 C 104.64 127.55 105.08 126.16 105.50 124.76 C 100.17 125.69 94.75 125.78 89.36 125.62 M 95.14 133.19 C 98.13 135.35 102.20 134.11 103.87 130.93 C 103.14 130.57 101.67 129.84 100.93 129.48 C 98.26 128.86 96.57 131.42 95.14 133.19 Z" />
<path fill="#000000" opacity="1.00" d=" M 97.54 163.81 C 98.66 162.23 99.81 160.67 101.03 159.16 C 102.06 162.84 102.07 166.73 102.01 170.53 C 99.51 168.70 101.43 163.80 97.54 163.81 Z" />
</g>
<g id="#fd0202ff">
<path fill="#fd0202" opacity="1.00" d=" M 104.24 42.21 C 105.06 42.13 106.69 41.97 107.51 41.89 C 104.55 44.60 101.03 46.57 97.62 48.64 C 92.46 51.31 87.65 54.58 82.60 57.45 C 80.43 58.90 77.17 59.98 77.08 63.07 C 75.81 73.81 77.39 84.65 77.21 95.44 C 75.85 94.85 74.48 94.27 73.10 93.71 C 72.84 95.88 72.59 98.04 72.29 100.21 C 71.32 94.51 74.19 89.39 75.17 83.95 C 75.33 75.90 74.19 67.70 75.76 59.72 C 77.97 57.44 80.80 55.90 83.41 54.14 C 90.24 49.96 97.47 46.49 104.24 42.21 Z" />
<path fill="#fd0202" opacity="1.00" d=" M 84.59 141.79 C 88.26 142.99 91.48 145.24 94.15 147.99 C 91.12 146.62 88.02 145.33 85.18 143.59 C 85.03 143.14 84.74 142.24 84.59 141.79 Z" />
<path fill="#fd0202" opacity="1.00" d=" M 102.30 174.77 C 103.86 177.30 104.96 180.06 106.00 182.84 C 104.80 182.07 103.61 181.31 102.40 180.56 C 102.35 178.63 102.30 176.70 102.30 174.77 Z" />
</g>
<g id="#254137ff">
<path fill="#254137" opacity="1.00" d=" M 57.82 55.84 C 58.35 52.35 61.05 49.67 62.50 46.52 C 63.03 47.04 63.58 47.56 64.12 48.07 C 64.04 53.58 69.95 55.48 73.83 57.91 C 73.82 60.70 73.76 63.49 73.48 66.26 C 72.89 65.81 72.31 65.37 71.73 64.92 C 73.71 69.53 70.78 74.37 72.21 79.08 C 72.27 77.60 72.33 76.13 72.38 74.65 C 73.12 77.15 73.87 79.66 74.26 82.25 C 71.85 80.90 69.48 79.49 67.20 77.94 C 67.05 77.78 66.77 77.47 66.63 77.31 C 66.08 76.25 65.56 75.17 64.98 74.13 C 65.76 73.68 66.54 73.23 67.33 72.78 C 66.92 69.02 68.03 65.25 67.66 61.53 C 65.30 58.29 60.42 58.80 57.82 55.84 Z" />
</g>
<g id="#6da28dfe">
<path fill="#6da28d" opacity="1.00" d=" M 38.81 50.10 C 39.14 49.77 39.79 49.13 40.12 48.81 C 43.83 51.41 47.78 53.71 51.05 56.89 C 54.49 60.27 59.47 62.38 61.03 67.31 C 55.07 63.79 50.57 58.29 44.60 54.85 C 43.09 53.92 41.01 53.35 40.30 51.56 C 39.93 51.19 39.18 50.46 38.81 50.10 Z" />
</g>
<g id="#2545389d">
<path fill="#254538" opacity="0.62" d=" M 38.81 50.10 C 39.18 50.46 39.93 51.19 40.30 51.56 L 39.44 51.71 C 39.28 51.31 38.97 50.50 38.81 50.10 Z" />
</g>
<g id="#191919ff">
<path fill="#191919" opacity="1.00" d=" M 73.83 57.91 C 76.83 56.21 80.08 55.01 83.41 54.14 C 80.80 55.90 77.97 57.44 75.76 59.72 C 74.19 67.70 75.33 75.90 75.17 83.95 C 74.19 89.39 71.32 94.51 72.29 100.21 C 72.59 98.04 72.84 95.88 73.10 93.71 C 74.48 94.27 75.85 94.85 77.21 95.44 C 77.39 84.65 75.81 73.81 77.08 63.07 C 77.17 59.98 80.43 58.90 82.60 57.45 C 82.27 58.56 81.95 59.67 81.63 60.78 C 91.45 66.43 100.53 73.41 110.85 78.18 C 116.08 73.67 120.87 68.67 125.35 63.41 C 127.34 61.05 129.62 58.95 132.11 57.13 C 132.40 58.40 132.70 59.67 132.95 60.95 C 133.19 62.24 133.41 63.53 133.58 64.84 C 133.67 65.78 133.74 66.72 133.77 67.67 C 133.59 69.79 133.32 71.89 133.20 74.01 C 133.12 75.94 133.12 77.88 133.08 79.82 C 132.96 85.36 133.21 91.04 131.32 96.35 C 131.40 87.98 131.34 79.62 131.40 71.25 C 123.80 74.28 117.45 80.32 114.63 88.04 C 114.40 89.69 114.41 91.37 114.44 93.04 C 114.16 96.71 117.92 99.23 117.72 102.90 C 117.41 105.74 115.29 108.08 115.27 110.98 C 115.15 118.89 115.28 126.81 115.27 134.72 C 120.49 133.01 125.94 132.20 131.23 130.75 C 131.62 132.80 132.10 134.84 132.57 136.88 C 133.61 135.39 134.67 133.91 135.62 132.36 C 137.85 129.26 138.13 125.40 137.10 121.82 C 135.77 116.88 136.52 111.35 133.76 106.85 C 133.36 108.19 132.96 109.53 132.65 110.89 C 132.10 109.41 131.50 107.94 130.81 106.52 C 128.38 105.05 125.83 103.19 126.49 99.94 C 127.88 99.73 129.27 99.52 130.67 99.30 C 131.27 98.70 131.86 98.09 132.44 97.48 C 132.85 98.17 133.25 98.87 133.66 99.57 C 135.37 97.26 136.58 94.27 139.17 92.84 C 143.49 92.90 147.59 95.27 150.08 98.76 C 147.76 101.94 144.83 104.88 143.72 108.75 C 142.47 114.50 144.65 120.24 144.59 126.01 C 144.51 129.65 142.50 132.84 141.08 136.09 L 140.79 136.73 C 138.86 140.66 136.47 144.33 134.00 147.94 C 130.85 152.29 132.31 158.01 132.24 163.00 C 132.27 163.36 132.32 164.09 132.35 164.45 C 132.21 167.92 132.09 171.40 132.30 174.87 C 131.77 174.99 130.72 175.22 130.20 175.33 C 130.50 167.23 130.16 159.12 130.35 151.02 C 129.12 149.70 127.90 148.39 126.73 147.03 C 128.32 143.99 130.03 141.00 131.44 137.86 C 126.01 138.74 120.58 139.71 115.36 141.46 C 116.19 174.15 115.95 206.91 118.14 239.56 C 121.75 232.42 124.03 224.70 127.61 217.55 C 128.72 215.16 130.08 212.75 130.02 210.04 C 130.24 199.56 130.10 189.08 130.19 178.60 C 132.75 184.29 131.54 190.62 131.40 196.63 C 131.33 197.77 131.27 198.91 131.22 200.06 C 130.79 205.39 132.76 211.04 130.19 216.07 C 126.08 225.20 122.56 234.59 118.68 243.83 C 118.27 244.21 117.43 244.98 117.02 245.36 C 116.10 244.47 115.14 243.63 114.19 242.77 C 112.47 241.37 111.42 239.41 110.66 237.36 C 112.65 239.05 114.66 240.72 116.70 242.36 C 116.45 234.90 116.28 227.45 116.23 219.99 C 114.91 194.30 114.45 168.57 113.70 142.86 C 109.42 146.41 106.26 151.01 103.14 155.56 C 106.19 157.19 109.79 159.22 110.09 163.10 C 110.99 167.74 107.75 171.66 104.36 174.34 C 106.71 179.59 109.73 185.63 107.04 191.36 C 105.81 188.96 104.89 186.42 103.96 183.89 C 102.79 184.77 101.63 185.64 100.43 186.48 C 100.53 182.88 100.96 179.29 100.67 175.69 C 100.05 177.95 99.84 180.29 99.38 182.59 C 98.07 184.18 96.00 185.15 95.40 187.31 C 94.29 182.54 98.63 179.12 98.96 174.54 C 94.21 177.47 93.32 183.18 93.15 188.29 C 93.70 188.26 94.81 188.21 95.37 188.19 C 95.15 189.96 94.57 191.67 93.99 193.35 C 90.02 187.70 91.65 179.69 96.03 174.73 C 92.62 171.70 89.76 167.25 91.30 162.51 C 91.79 158.83 95.11 156.88 98.18 155.51 C 95.27 150.87 90.60 147.84 85.62 145.80 C 84.89 150.79 85.23 155.87 85.47 160.90 C 85.60 164.60 89.95 166.97 89.11 170.90 C 88.82 174.89 85.11 177.82 85.52 181.93 C 85.88 192.80 85.68 203.71 86.45 214.56 C 88.16 216.85 90.31 218.75 92.27 220.83 C 89.46 219.20 85.94 217.64 84.93 214.27 C 84.16 209.99 84.52 205.61 84.17 201.29 C 83.80 194.08 84.23 186.85 83.70 179.65 C 80.85 178.66 76.95 178.14 76.00 174.72 C 74.83 171.54 78.32 169.35 79.87 167.01 C 77.20 163.77 73.48 160.69 73.72 156.06 C 74.05 156.43 74.71 157.18 75.03 157.55 C 76.64 161.20 79.57 163.96 82.23 166.85 C 80.78 169.12 79.94 171.65 80.00 174.37 C 78.88 173.70 77.77 173.03 76.63 172.39 C 78.16 174.63 79.78 177.61 82.95 177.39 C 86.55 176.19 87.65 171.59 87.10 168.21 C 84.90 164.40 81.82 161.18 79.08 157.76 C 80.38 154.29 82.25 151.05 83.39 147.52 C 83.76 144.66 83.12 141.76 82.84 138.90 C 82.79 137.34 82.76 135.78 82.77 134.22 C 82.78 133.45 82.80 131.90 82.81 131.13 C 82.80 125.11 82.83 119.07 82.19 113.08 C 81.90 109.91 79.77 107.43 77.98 104.97 C 80.56 102.54 75.61 102.12 76.39 105.08 C 75.73 105.22 74.40 105.50 73.74 105.64 C 73.57 105.38 73.25 104.86 73.08 104.60 C 72.83 104.17 72.31 103.31 72.05 102.88 C 70.79 99.96 69.80 96.70 70.54 93.52 C 71.49 89.66 73.40 86.12 74.26 82.25 C 73.87 79.66 73.12 77.15 72.38 74.65 C 72.38 71.81 73.12 69.06 73.48 66.26 C 73.76 63.49 73.82 60.70 73.83 57.91 M 79.33 60.84 C 77.14 67.74 78.72 74.97 78.80 82.02 C 79.03 83.51 78.59 85.52 80.06 86.48 C 78.72 91.67 78.55 97.14 76.03 102.00 C 81.24 99.70 83.01 93.39 82.23 88.12 C 81.86 87.84 81.12 87.27 80.75 86.99 L 81.69 87.36 C 82.08 81.21 80.61 75.13 80.74 68.98 C 80.66 66.22 81.14 63.18 79.33 60.84 M 83.36 78.54 C 83.17 83.71 83.33 88.88 83.40 94.06 C 88.11 93.24 93.79 92.02 97.23 96.36 C 101.61 92.82 107.40 92.55 112.65 93.98 C 112.72 92.11 112.79 90.24 112.84 88.37 C 105.29 80.98 94.06 75.25 83.36 78.54 M 80.36 101.20 C 78.57 106.88 85.04 112.99 90.58 110.59 C 92.56 109.22 95.53 108.67 96.39 106.18 C 94.92 106.49 93.46 106.87 92.00 107.22 C 91.50 106.03 89.92 104.60 91.12 103.31 C 92.07 102.04 93.95 102.80 95.30 102.64 C 95.41 100.56 97.04 97.70 94.49 96.50 C 89.95 93.50 81.52 95.22 80.36 101.20 M 98.35 98.36 C 96.73 101.12 96.74 104.95 98.31 107.72 C 100.97 109.25 104.76 110.30 104.81 114.04 C 102.16 112.81 100.21 109.94 97.01 110.13 C 94.15 109.58 90.56 112.74 92.12 115.66 C 93.57 118.54 97.81 117.38 99.45 120.00 C 94.97 120.63 89.24 118.46 89.66 113.09 C 87.77 112.78 85.89 112.40 84.01 111.98 C 84.13 120.98 84.07 129.99 84.76 138.97 C 90.79 142.79 97.05 146.71 101.13 152.75 C 103.73 146.00 108.81 140.87 113.44 135.54 C 114.37 127.36 113.20 119.12 113.69 110.92 C 111.21 112.38 108.53 113.65 105.56 113.10 C 106.64 110.69 109.83 111.25 111.51 109.47 C 113.85 107.25 116.70 104.04 115.51 100.58 C 112.96 93.84 102.65 92.99 98.35 98.36 M 139.23 95.06 C 136.54 97.13 136.08 100.90 134.49 103.76 C 132.52 102.58 130.50 101.36 128.14 101.32 C 129.76 105.13 134.33 105.72 137.95 106.12 C 136.56 113.42 139.19 120.61 140.08 127.80 C 137.19 135.00 131.34 140.65 129.00 148.11 C 130.57 147.92 132.22 147.54 133.03 146.02 C 136.80 140.37 139.24 133.97 142.34 127.95 C 142.84 121.99 141.00 116.03 141.30 110.05 C 141.99 105.62 144.94 102.02 147.69 98.65 C 145.34 96.66 142.43 94.83 139.23 95.06 M 74.23 96.62 C 73.24 97.24 73.44 99.69 74.87 99.42 C 75.86 98.80 75.64 96.37 74.23 96.62 M 113.49 138.54 C 110.36 141.22 107.51 144.37 105.71 148.12 C 109.51 145.12 112.28 140.55 117.13 139.09 C 121.58 137.77 126.23 137.25 130.63 135.74 C 130.69 135.04 130.79 133.65 130.85 132.96 C 124.89 133.99 118.31 134.47 113.49 138.54 M 84.59 141.79 C 84.74 142.24 85.03 143.14 85.18 143.59 C 88.02 145.33 91.12 146.62 94.15 147.99 C 91.48 145.24 88.26 142.99 84.59 141.79 M 81.24 157.04 C 81.47 158.45 82.85 159.28 83.67 160.34 C 83.83 157.55 83.84 154.75 83.71 151.95 C 82.79 153.60 81.79 155.23 81.24 157.04 M 99.37 157.35 C 93.20 158.01 90.92 165.99 94.52 170.51 C 96.29 173.14 99.89 173.35 102.72 172.73 C 106.29 171.12 109.05 167.03 108.27 163.03 C 107.73 159.09 103.17 156.11 99.37 157.35 M 102.30 174.77 C 102.30 176.70 102.35 178.63 102.40 180.56 C 103.61 181.31 104.80 182.07 106.00 182.84 C 104.96 180.06 103.86 177.30 102.30 174.77 Z" />
</g>
<g id="#29443eff">
<path fill="#29443e" opacity="1.00" d=" M 79.33 60.84 C 81.14 63.18 80.66 66.22 80.74 68.98 C 80.61 75.13 82.08 81.21 81.69 87.36 L 80.75 86.99 L 80.06 86.48 C 78.59 85.52 79.03 83.51 78.80 82.02 C 78.72 74.97 77.14 67.74 79.33 60.84 Z" />
</g>
<g id="#00000058">
<path fill="#000000" opacity="0.35" d=" M 133.77 67.67 C 133.74 66.72 133.67 65.78 133.58 64.84 C 135.24 66.14 136.95 67.45 138.97 68.15 C 139.23 68.25 139.73 68.45 139.99 68.55 C 139.63 70.09 139.98 71.68 141.04 72.87 C 146.27 79.15 153.32 84.02 156.96 91.54 C 152.60 87.90 149.40 83.12 145.26 79.25 C 141.36 75.46 137.88 71.24 133.77 67.67 Z" />
<path fill="#000000" opacity="0.35" d=" M 67.20 77.94 C 69.48 79.49 71.85 80.90 74.26 82.25 C 73.40 86.12 71.49 89.66 70.54 93.52 C 69.80 96.70 70.79 99.96 72.05 102.88 C 69.48 103.75 66.90 104.58 64.30 105.37 C 63.13 100.85 63.82 96.22 65.54 91.95 C 67.46 87.52 66.73 82.62 67.20 77.94 Z" />
</g>
<g id="#659b7eff">
<path fill="#659b7e" opacity="1.00" d=" M 55.68 68.05 C 59.18 69.39 62.45 71.33 64.98 74.13 C 65.56 75.17 66.08 76.25 66.63 77.31 C 64.77 76.24 62.83 75.26 61.17 73.90 C 59.26 72.02 57.46 70.05 55.68 68.05 Z" />
<path fill="#659b7e" opacity="1.00" d=" M 141.04 72.87 C 139.98 71.68 139.63 70.09 139.99 68.55 C 141.32 70.40 142.00 72.77 143.95 74.11 C 148.93 78.11 153.14 83.04 156.81 88.25 C 158.10 89.67 157.49 91.66 157.52 93.39 C 163.30 94.41 165.14 100.80 167.94 105.14 C 167.98 105.92 168.06 107.47 168.10 108.25 C 163.97 105.56 161.29 101.41 158.34 97.59 C 155.76 94.12 151.21 93.44 147.87 91.01 C 145.91 89.25 145.13 86.61 144.00 84.31 C 143.28 84.76 142.56 85.20 141.84 85.65 C 140.91 84.57 139.97 83.49 139.04 82.42 C 139.96 81.93 140.89 81.45 141.81 80.98 C 142.95 80.39 144.10 79.82 145.26 79.25 C 149.40 83.12 152.60 87.90 156.96 91.54 C 153.32 84.02 146.27 79.15 141.04 72.87 Z" />
<path fill="#659b7e" opacity="1.00" d=" M 152.88 237.97 C 153.40 238.11 154.44 238.38 154.96 238.52 C 156.61 240.56 156.88 243.14 156.42 245.66 C 155.16 244.49 153.95 243.26 152.82 241.97 L 152.51 241.60 C 153.60 240.70 153.69 239.08 152.88 237.97 Z" />
</g>
<g id="#4a7d6eff">
<path fill="#4a7d6e" opacity="1.00" d=" M 133.77 67.67 C 137.88 71.24 141.36 75.46 145.26 79.25 C 144.10 79.82 142.95 80.39 141.81 80.98 C 138.89 78.72 136.00 76.42 133.20 74.01 C 133.32 71.89 133.59 69.79 133.77 67.67 Z" />
</g>
<g id="#7fb298ff">
<path fill="#7fb298" opacity="1.00" d=" M 133.20 74.01 C 136.00 76.42 138.89 78.72 141.81 80.98 C 140.89 81.45 139.96 81.93 139.04 82.42 C 137.97 81.16 136.92 79.89 135.87 78.62 C 134.93 79.02 134.01 79.42 133.08 79.82 C 133.12 77.88 133.12 75.94 133.20 74.01 Z" />
</g>
<g id="#0000005a">
<path fill="#000000" opacity="0.35" d=" M 80.06 86.48 L 80.75 86.99 C 81.12 87.27 81.86 87.84 82.23 88.12 C 83.01 93.39 81.24 99.70 76.03 102.00 C 78.55 97.14 78.72 91.67 80.06 86.48 Z" />
</g>
<g id="#2f2f2fff">
<path fill="#2f2f2f" opacity="1.00" d=" M 124.94 94.20 C 125.78 94.04 127.47 93.71 128.31 93.54 C 128.18 95.17 128.06 96.81 127.96 98.44 C 127.20 98.38 125.67 98.26 124.91 98.20 C 124.91 96.86 124.92 95.53 124.94 94.20 Z" />
</g>
<g id="#7fa197ff">
<path fill="#7fa197" opacity="1.00" d=" M 149.39 95.12 C 150.79 94.69 151.27 95.18 150.82 96.58 C 149.42 97.00 148.94 96.51 149.39 95.12 Z" />
</g>
<g id="#bb0c0cff">
<path fill="#bb0c0c" opacity="1.00" d=" M 74.23 96.62 C 75.64 96.37 75.86 98.80 74.87 99.42 C 73.44 99.69 73.24 97.24 74.23 96.62 Z" />
</g>
<g id="#222f25ff">
<path fill="#222f25" opacity="1.00" d=" M 152.01 95.62 C 154.90 97.27 154.26 101.04 151.56 102.47 C 151.63 100.18 151.79 97.89 152.01 95.62 Z" />
</g>
<g id="#1f2d2aff">
<path fill="#1f2d2a" opacity="1.00" d=" M 155.09 96.64 C 157.41 96.89 156.97 99.35 157.34 101.03 C 156.74 101.05 155.54 101.07 154.95 101.08 C 154.98 99.60 155.03 98.12 155.09 96.64 Z" />
</g>
<g id="#050c098e">
<path fill="#050c09" opacity="0.56" d=" M 76.39 105.08 C 75.61 102.12 80.56 102.54 77.98 104.97 C 77.58 105.00 76.79 105.05 76.39 105.08 Z" />
</g>
<g id="#234138ff">
<path fill="#234138" opacity="1.00" d=" M 73.74 105.64 C 74.40 105.50 75.73 105.22 76.39 105.08 C 76.79 105.05 77.58 105.00 77.98 104.97 C 79.77 107.43 81.90 109.91 82.19 113.08 C 82.83 119.07 82.80 125.11 82.81 131.13 C 80.66 129.53 78.49 127.97 76.24 126.52 C 75.04 125.16 73.87 123.77 72.53 122.56 C 74.34 122.80 76.16 122.96 77.98 123.12 C 77.19 120.52 76.14 117.98 74.40 115.87 C 74.08 115.55 73.44 114.93 73.13 114.62 C 71.71 113.61 70.31 112.56 68.85 111.61 C 67.49 110.77 66.12 109.96 64.77 109.10 C 66.13 107.66 68.08 107.29 69.92 106.89 C 69.00 108.50 72.02 110.32 71.92 107.87 C 71.61 107.52 71.00 106.82 70.69 106.48 C 71.70 106.17 72.71 105.89 73.74 105.64 Z" />
</g>
<g id="#202d29ff">
<path fill="#202d29" opacity="1.00" d=" M 130.81 106.52 C 131.50 107.94 132.10 109.41 132.65 110.89 C 132.87 113.31 133.09 115.74 133.15 118.18 C 133.13 118.60 133.10 119.46 133.09 119.89 C 133.07 124.17 131.48 129.39 135.62 132.36 C 134.67 133.91 133.61 135.39 132.57 136.88 C 132.10 134.84 131.62 132.80 131.23 130.75 C 130.60 122.69 131.30 114.59 130.81 106.52 Z" />
</g>
<g id="#2a493eff">
<path fill="#2a493e" opacity="1.00" d=" M 133.76 106.85 C 136.52 111.35 135.77 116.88 137.10 121.82 C 138.13 125.40 137.85 129.26 135.62 132.36 C 131.48 129.39 133.07 124.17 133.09 119.89 C 135.24 121.28 135.41 117.40 133.15 118.18 C 133.09 115.74 132.87 113.31 132.65 110.89 C 132.96 109.53 133.36 108.19 133.76 106.85 Z" />
</g>
<g id="#396354ff">
<path fill="#396354" opacity="1.00" d=" M 51.49 112.43 C 55.83 111.01 60.23 109.71 64.77 109.10 C 64.51 109.38 63.99 109.94 63.73 110.22 C 65.14 111.28 66.53 112.37 67.90 113.48 C 68.21 112.85 68.53 112.23 68.85 111.61 C 70.31 112.56 71.71 113.61 73.13 114.62 C 70.22 115.42 73.55 118.72 74.40 115.87 C 76.14 117.98 77.19 120.52 77.98 123.12 C 76.16 122.96 74.34 122.80 72.53 122.56 C 69.93 120.81 67.51 118.80 64.87 117.12 C 68.10 120.82 71.66 124.53 76.24 126.52 C 78.49 127.97 80.66 129.53 82.81 131.13 C 82.80 131.90 82.78 133.45 82.77 134.22 C 80.41 132.52 78.04 130.83 75.59 129.27 C 74.58 134.07 76.32 138.97 79.37 142.70 C 77.40 142.09 75.41 141.56 73.45 140.95 C 67.70 138.62 64.48 132.88 59.62 129.30 C 62.12 132.56 65.34 135.15 68.13 138.14 C 67.07 141.95 70.97 143.79 73.33 145.90 C 70.74 150.79 69.24 156.16 66.76 161.10 C 64.94 159.28 63.05 157.55 61.21 155.77 C 62.32 158.19 63.02 160.77 62.99 163.45 C 64.82 163.27 66.65 163.09 68.48 162.88 C 70.96 165.37 72.87 168.33 74.72 171.29 C 72.85 172.81 70.71 173.91 68.40 174.60 C 69.04 176.24 69.62 177.92 70.50 179.46 C 72.30 182.48 77.13 182.98 77.64 186.84 C 78.38 189.58 77.91 192.44 76.53 194.89 C 68.56 186.65 59.49 179.61 50.52 172.48 C 46.18 169.12 43.77 162.78 37.71 162.28 C 35.84 158.17 31.83 155.09 31.18 150.47 C 30.31 150.00 29.45 149.52 28.59 149.04 C 28.93 148.11 29.28 147.19 29.63 146.27 C 28.44 146.44 27.25 146.59 26.06 146.72 C 26.58 145.52 27.16 144.35 27.74 143.19 C 26.73 142.12 25.67 141.08 24.86 139.84 C 24.97 137.01 26.13 134.35 26.73 131.60 C 26.08 131.32 24.79 130.76 24.14 130.48 C 27.34 127.30 31.15 124.78 35.49 123.46 C 35.84 122.43 36.18 121.41 36.51 120.39 C 39.17 119.87 41.90 119.42 44.33 118.16 C 42.93 117.52 41.39 117.61 39.89 117.55 C 39.40 117.48 38.40 117.33 37.90 117.26 C 41.74 114.05 46.93 113.93 51.49 112.43 M 57.77 110.85 C 58.86 113.81 61.86 115.27 64.38 116.82 C 62.68 114.34 60.34 112.37 57.77 110.85 M 56.29 114.08 C 56.40 117.41 59.29 112.57 56.29 114.08 M 43.76 116.79 C 46.21 119.21 49.70 117.37 52.26 116.14 C 49.42 116.24 46.60 116.65 43.76 116.79 M 49.23 120.97 C 51.75 123.63 54.57 125.97 57.24 128.47 C 57.16 128.84 57.00 129.58 56.93 129.95 C 56.30 130.11 55.05 130.45 54.42 130.62 C 55.64 131.55 56.74 132.61 57.79 133.74 C 57.57 132.93 57.36 132.13 57.15 131.33 C 57.65 130.51 58.13 129.69 58.60 128.86 C 55.53 126.16 52.54 123.37 49.23 120.97 M 36.88 122.22 C 38.92 123.85 41.18 125.20 43.60 126.17 C 47.29 127.55 49.78 130.71 52.80 133.07 C 48.59 128.08 43.02 124.39 36.88 122.22 M 53.87 137.05 C 54.64 139.34 56.14 141.24 58.36 142.29 C 57.80 139.85 56.10 138.08 53.87 137.05 M 50.51 139.77 C 51.49 142.17 53.81 143.29 56.10 144.12 C 54.73 142.10 52.82 140.58 50.51 139.77 M 49.06 149.67 C 52.43 150.52 55.23 152.62 58.22 154.29 C 56.60 151.41 53.99 149.37 51.01 148.06 C 50.36 148.60 49.71 149.14 49.06 149.67 M 50.82 151.69 C 52.10 153.79 53.99 155.37 56.24 156.34 C 54.95 154.25 53.20 152.48 50.82 151.69 Z" />
</g>
<g id="#1d302c7f">
<path fill="#1d302c" opacity="0.50" d=" M 56.29 114.08 C 59.29 112.57 56.40 117.41 56.29 114.08 Z" />
</g>
<g id="#8cbdaaff">
<path fill="#8cbdaa" opacity="1.00" d=" M 74.40 115.87 C 73.55 118.72 70.22 115.42 73.13 114.62 C 73.44 114.93 74.08 115.55 74.40 115.87 Z" />
</g>
<g id="#6f998ff9">
<path fill="#6f998f" opacity="0.98" d=" M 37.90 117.26 C 38.40 117.33 39.40 117.48 39.89 117.55 L 39.29 118.24 L 38.28 118.09 L 37.90 117.26 Z" />
</g>
<g id="#507d6eff">
<path fill="#507d6e" opacity="1.00" d=" M 148.78 116.71 C 153.69 119.72 158.47 123.59 161.07 128.88 C 156.49 125.45 151.07 122.23 148.78 116.71 Z" />
</g>
<g id="#809089ff">
<path fill="#809089" opacity="1.00" d=" M 133.15 118.18 C 135.41 117.40 135.24 121.28 133.09 119.89 C 133.10 119.46 133.13 118.60 133.15 118.18 Z" />
</g>
<g id="#264338ff">
<path fill="#264338" opacity="1.00" d=" M 75.59 129.27 C 78.04 130.83 80.41 132.52 82.77 134.22 C 82.76 135.78 82.79 137.34 82.84 138.90 C 80.34 145.16 77.63 151.33 75.03 157.55 C 74.71 157.18 74.05 156.43 73.72 156.06 C 73.48 160.69 77.20 163.77 79.87 167.01 C 78.32 169.35 74.83 171.54 76.00 174.72 C 76.95 178.14 80.85 178.66 83.70 179.65 C 84.23 186.85 83.80 194.08 84.17 201.29 C 82.18 199.75 80.24 198.15 78.34 196.51 C 77.73 195.98 77.13 195.44 76.53 194.89 C 77.91 192.44 78.38 189.58 77.64 186.84 C 77.13 182.98 72.30 182.48 70.50 179.46 C 69.62 177.92 69.04 176.24 68.40 174.60 C 70.71 173.91 72.85 172.81 74.72 171.29 C 72.87 168.33 70.96 165.37 68.48 162.88 C 68.05 162.43 67.19 161.54 66.76 161.10 C 69.24 156.16 70.74 150.79 73.33 145.90 C 70.97 143.79 67.07 141.95 68.13 138.14 C 70.33 140.62 72.94 142.67 75.72 144.47 C 74.96 143.29 74.20 142.12 73.45 140.95 C 75.41 141.56 77.40 142.09 79.37 142.70 C 76.32 138.97 74.58 134.07 75.59 129.27 Z" />
</g>
<g id="#7bae99ff">
<path fill="#7bae99" opacity="1.00" d=" M 152.52 131.07 C 153.49 129.86 155.74 131.41 154.77 132.72 C 153.79 133.90 151.55 132.37 152.52 131.07 Z" />
</g>
<g id="#fe0101ff">
<path fill="#fe0101" opacity="1.00" d=" M 113.49 138.54 C 118.31 134.47 124.89 133.99 130.85 132.96 C 130.79 133.65 130.69 135.04 130.63 135.74 C 126.23 137.25 121.58 137.77 117.13 139.09 C 112.28 140.55 109.51 145.12 105.71 148.12 C 107.51 144.37 110.36 141.22 113.49 138.54 Z" />
<path fill="#fe0101" opacity="1.00" d=" M 93.15 188.29 C 93.32 183.18 94.21 177.47 98.96 174.54 C 98.63 179.12 94.29 182.54 95.40 187.31 L 95.37 188.19 C 94.81 188.21 93.70 188.26 93.15 188.29 Z" />
</g>
<g id="#8bbdabff">
<path fill="#8bbdab" opacity="1.00" d=" M 182.43 133.12 C 183.78 132.39 185.95 134.19 185.46 135.64 C 184.13 136.25 181.93 134.57 182.43 133.12 Z" />
</g>
<g id="#20372f7d">
<path fill="#20372f" opacity="0.49" d=" M 187.16 134.07 C 190.13 132.49 187.33 137.40 187.16 134.07 Z" />
</g>
<g id="#5d9b81ff">
<path fill="#5d9b81" opacity="1.00" d=" M 53.87 137.05 C 56.10 138.08 57.80 139.85 58.36 142.29 C 56.14 141.24 54.64 139.34 53.87 137.05 Z" />
</g>
<g id="#5f997fff">
<path fill="#5f997f" opacity="1.00" d=" M 50.51 139.77 C 52.82 140.58 54.73 142.10 56.10 144.12 C 53.81 143.29 51.49 142.17 50.51 139.77 Z" />
</g>
<g id="#7eac93ff">
<path fill="#7eac93" opacity="1.00" d=" M 187.66 144.10 C 190.10 145.08 192.37 146.46 194.23 148.35 C 191.35 148.23 189.23 146.34 187.66 144.10 Z" />
</g>
<g id="#7faa98ff">
<path fill="#7faa98" opacity="1.00" d=" M 141.33 147.10 C 142.72 146.63 143.23 147.11 142.87 148.52 C 141.49 148.97 140.97 148.50 141.33 147.10 Z" />
</g>
<g id="#6fa58aff">
<path fill="#6fa58a" opacity="1.00" d=" M 157.44 147.28 C 158.37 146.26 160.29 147.74 159.43 148.87 C 158.50 149.89 156.58 148.41 157.44 147.28 Z" />
</g>
<g id="#709e85ff">
<path fill="#709e85" opacity="1.00" d=" M 187.38 147.37 C 188.71 146.35 190.55 148.62 189.55 149.83 C 188.20 150.84 186.33 148.59 187.38 147.37 Z" />
</g>
<g id="#5f917cff">
<path fill="#5f917c" opacity="1.00" d=" M 49.06 149.67 C 49.71 149.14 50.36 148.60 51.01 148.06 C 53.99 149.37 56.60 151.41 58.22 154.29 C 55.23 152.62 52.43 150.52 49.06 149.67 Z" />
</g>
<g id="#5a9c86ff">
<path fill="#5a9c86" opacity="1.00" d=" M 50.82 151.69 C 53.20 152.48 54.95 154.25 56.24 156.34 C 53.99 155.37 52.10 153.79 50.82 151.69 Z" />
</g>
<g id="#224036ff">
<path fill="#224036" opacity="1.00" d=" M 81.24 157.04 C 81.79 155.23 82.79 153.60 83.71 151.95 C 83.84 154.75 83.83 157.55 83.67 160.34 C 82.85 159.28 81.47 158.45 81.24 157.04 Z" />
</g>
<g id="#659081ff">
<path fill="#659081" opacity="1.00" d=" M 136.76 152.71 C 139.20 153.67 141.48 155.06 143.04 157.22 C 140.00 157.45 138.11 155.08 136.76 152.71 Z" />
</g>
<g id="#518272ff">
<path fill="#518272" opacity="1.00" d=" M 61.21 155.77 C 63.05 157.55 64.94 159.28 66.76 161.10 C 67.19 161.54 68.05 162.43 68.48 162.88 C 66.65 163.09 64.82 163.27 62.99 163.45 C 63.02 160.77 62.32 158.19 61.21 155.77 Z" />
</g>
<g id="#ffff00ff">
<path fill="#ffff00" opacity="1.00" d=" M 99.37 157.35 C 103.17 156.11 107.73 159.09 108.27 163.03 C 109.05 167.03 106.29 171.12 102.72 172.73 C 99.89 173.35 96.29 173.14 94.52 170.51 C 90.92 165.99 93.20 158.01 99.37 157.35 M 97.54 163.81 C 101.43 163.80 99.51 168.70 102.01 170.53 C 102.07 166.73 102.06 162.84 101.03 159.16 C 99.81 160.67 98.66 162.23 97.54 163.81 Z" />
</g>
<g id="#9fcbb5fe">
<path fill="#9fcbb5" opacity="1.00" d=" M 187.30 159.24 C 188.85 158.90 190.53 160.36 191.38 161.57 C 190.38 163.24 186.85 160.96 187.30 159.24 Z" />
</g>
<g id="#609b82ff">
<path fill="#609b82" opacity="1.00" d=" M 167.63 161.96 C 170.53 163.53 172.66 166.09 174.00 169.06 C 170.80 167.89 168.62 165.16 167.63 161.96 Z" />
</g>
<g id="#a8d0c4ff">
<path fill="#a8d0c4" opacity="1.00" d=" M 175.10 169.31 C 176.50 168.89 176.98 169.38 176.55 170.78 C 175.14 171.21 174.66 170.71 175.10 169.31 Z" />
</g>
<g id="#6ca38aff">
<path fill="#6ca38a" opacity="1.00" d=" M 163.63 172.26 C 164.37 171.30 166.51 171.35 166.64 172.78 C 166.53 174.80 162.50 174.26 163.63 172.26 Z" />
</g>
<g id="#7aa68dff">
<path fill="#7aa68d" opacity="1.00" d=" M 173.24 178.57 C 174.45 177.82 176.28 179.67 175.57 180.88 C 174.34 181.66 172.52 179.79 173.24 178.57 Z" />
</g>
<g id="#81b399ff">
<path fill="#81b399" opacity="1.00" d=" M 132.65 189.91 C 136.16 190.83 139.41 192.77 141.11 196.09 C 137.76 194.88 134.65 192.92 132.65 189.91 Z" />
</g>
<g id="#00000059">
<path fill="#000000" opacity="0.35" d=" M 78.34 196.51 C 80.24 198.15 82.18 199.75 84.17 201.29 C 84.52 205.61 84.16 209.99 84.93 214.27 C 85.94 217.64 89.46 219.20 92.27 220.83 C 92.52 221.05 93.02 221.48 93.27 221.69 C 95.21 224.80 97.96 227.28 101.26 228.88 C 102.25 229.76 103.23 230.64 104.21 231.53 C 105.87 237.31 109.48 242.27 111.24 248.02 C 109.76 247.52 108.30 246.92 107.17 245.81 C 99.06 238.60 91.47 230.81 83.12 223.85 C 81.14 221.87 77.93 220.28 78.10 217.06 C 77.92 210.22 77.45 203.32 78.34 196.51 Z" />
</g>
<g id="#567f72ff">
<path fill="#567f72" opacity="1.00" d=" M 131.40 196.63 C 135.99 198.90 139.90 202.33 143.13 206.27 C 138.94 204.62 135.36 201.80 131.22 200.06 C 131.27 198.91 131.33 197.77 131.40 196.63 Z" />
</g>
<g id="#4a7c6bff">
<path fill="#4a7c6b" opacity="1.00" d=" M 148.77 219.94 C 150.58 220.88 152.37 221.86 154.17 222.85 C 154.64 222.18 155.12 221.52 155.60 220.86 C 157.07 224.21 158.62 227.55 159.49 231.12 C 155.21 228.14 151.19 224.64 148.77 219.94 Z" />
</g>
<g id="#678f82ff">
<path fill="#678f82" opacity="1.00" d=" M 142.28 221.57 C 143.77 221.27 145.96 223.15 145.51 224.72 C 143.91 225.38 141.82 223.14 142.28 221.57 Z" />
</g>
<g id="#2f2f2fef">
<path fill="#2f2f2f" opacity="0.94" d=" M 93.27 221.69 C 96.16 223.83 98.84 226.22 101.26 228.88 C 97.96 227.28 95.21 224.80 93.27 221.69 Z" />
</g>
<g id="#5ea480ff">
<path fill="#5ea480" opacity="1.00" d=" M 135.40 228.25 C 136.67 227.49 138.29 229.55 137.51 230.70 C 136.24 231.45 134.61 229.40 135.40 228.25 Z" />
</g>
<g id="#274939fe">
<path fill="#274939" opacity="1.00" d=" M 104.21 231.53 C 106.48 233.33 108.69 235.22 110.66 237.36 C 111.42 239.41 112.47 241.37 114.19 242.77 C 113.60 244.15 113.01 245.53 112.42 246.91 C 113.18 247.93 113.94 248.96 114.70 249.98 C 113.70 249.75 112.69 249.53 111.69 249.30 C 111.58 248.98 111.35 248.34 111.24 248.02 C 109.48 242.27 105.87 237.31 104.21 231.53 Z" />
</g>
<g id="#538b77ff">
<path fill="#538b77" opacity="1.00" d=" M 132.75 237.80 C 134.10 237.82 135.44 237.84 136.79 237.87 C 136.29 239.25 135.81 240.64 135.32 242.03 C 135.81 243.19 136.29 244.36 136.75 245.54 C 134.07 243.98 131.54 241.10 132.75 237.80 Z" />
</g>
<g id="#3a7a5cff">
<path fill="#3a7a5c" opacity="1.00" d=" M 114.19 242.77 C 115.14 243.63 116.10 244.47 117.02 245.36 C 117.93 247.45 118.33 249.73 118.55 251.99 C 117.68 253.57 116.09 254.55 114.76 255.69 C 113.43 253.72 112.45 251.55 111.69 249.30 C 112.69 249.53 113.70 249.75 114.70 249.98 C 113.94 248.96 113.18 247.93 112.42 246.91 C 113.01 245.53 113.60 244.15 114.19 242.77 Z" />
</g>
<g id="#adccbaff">
<path fill="#adccba" opacity="1.00" d=" M 141.24 247.15 C 141.77 247.68 141.77 247.68 141.24 247.15 Z" />
</g>
<g id="#8bb5a6ff">
<path fill="#8bb5a6" opacity="1.00" d=" M 127.24 257.18 C 128.64 256.76 129.14 257.26 128.74 258.66 C 127.35 259.07 126.85 258.58 127.24 257.18 Z" />
</g>
<g id="#63957fff">
<path fill="#63957f" opacity="1.00" d=" M 141.36 272.19 C 143.87 274.06 146.35 276.12 147.52 279.13 C 145.91 278.07 144.50 276.67 142.72 275.90 C 140.74 275.51 138.73 275.29 136.82 274.61 C 137.84 274.67 138.87 274.74 139.90 274.83 C 140.38 273.95 140.87 273.06 141.36 272.19 Z" />
</g>
<g id="#639484e6">
<path fill="#639484" opacity="0.90" d=" M 139.74 282.01 C 141.28 279.76 143.43 283.32 141.08 284.13 C 140.75 283.60 140.08 282.54 139.74 282.01 Z" />
</g>
</svg>
